<svg width="30" height="30" viewBox="0 0 30 30" fill="none" xmlns="http://www.w3.org/2000/svg">
<path d="M25.3403 5.2348L25.3402 5.23485L25.3464 5.24105C25.8904 5.78498 25.886 6.65353 25.3495 7.18094L25.3495 7.18092L25.3464 7.18395L20.4839 12.0464L20.288 12.2424L20.3503 12.5124L22.9383 23.731L21.8518 24.8252L17.3182 16.1436L17.003 15.5399L16.5214 16.0214L11.6465 20.8964L11.469 21.0739L11.5052 21.3221L11.9188 24.1599L11.23 24.8423L9.34997 21.4454L9.28051 21.3199L9.15509 21.2503L5.74193 19.3565L6.42857 18.6569L9.3018 19.0821L9.55067 19.1189L9.72856 18.9411L14.5661 14.1036L15.046 13.6236L14.4454 13.3075L5.76072 8.73729L6.85649 7.64923L18.0751 10.2372L18.3451 10.2995L18.5411 10.1036L23.4036 5.24105L23.4036 5.24111L23.4097 5.2348C23.9131 4.7134 24.8369 4.7134 25.3403 5.2348Z" stroke="#04C300"/>
</svg>
