<svg width="30" height="30" viewBox="0 0 30 30" fill="none" xmlns="http://www.w3.org/2000/svg">
<path d="M2.5 26.25V22.5C2.5 22.2292 2.54167 21.9688 2.625 21.7188C2.70833 21.4688 2.83333 21.2292 3 21L13.4375 6.93754L12 5.00004C11.8958 4.85421 11.8229 4.70337 11.7813 4.54754C11.7396 4.39171 11.7292 4.23546 11.75 4.07879C11.7708 3.92212 11.8229 3.77087 11.9062 3.62504C11.9896 3.47921 12.1042 3.35421 12.25 3.25004C12.5417 3.04171 12.8542 2.95837 13.1875 3.00004C13.5208 3.04171 13.7917 3.20837 14 3.50004L15 4.84379L16 3.50004C16.2083 3.20837 16.4792 3.04171 16.8125 3.00004C17.1458 2.95837 17.4583 3.04171 17.75 3.25004C18.0417 3.45837 18.2083 3.72921 18.25 4.06254C18.2917 4.39587 18.2083 4.70837 18 5.00004L16.5625 6.93754L27 21C27.1667 21.2292 27.2917 21.4688 27.375 21.7188C27.4583 21.9688 27.5 22.2292 27.5 22.5V26.25C27.5 26.6042 27.3804 26.9013 27.1413 27.1413C26.9021 27.3813 26.605 27.5009 26.25 27.5H3.75C3.39583 27.5 3.09875 27.38 2.85875 27.14C2.61875 26.9 2.49917 26.6034 2.5 26.25ZM15 9.03129L5 22.5V25H8.75L13.9688 17.6875C14.2188 17.3334 14.5625 17.1563 15 17.1563C15.4375 17.1563 15.7813 17.3334 16.0313 17.6875L21.25 25H25V22.5L15 9.03129ZM11.8125 25H18.1875L15 20.5625L11.8125 25Z" fill="#04C300"/>
</svg>
