<svg width="36" height="36" viewBox="0 0 36 36" fill="none" xmlns="http://www.w3.org/2000/svg">
<path d="M4.94156 17.6287C4.15688 16.5009 3.84188 15.4378 4.60969 14.7937C5.25938 14.2481 6.21563 14.1441 7.39688 15.5081C7.39688 15.5081 10.9266 19.6087 12.1416 20.7478C12.4172 21.0037 12.7603 21.0431 13.0725 20.7197C13.3369 20.4441 13.2413 20.205 13.0163 19.8759C13.0163 19.8759 8.04094 12.4791 7.38844 11.5763C6.3 10.0659 6.71906 9.09 7.2225 8.62594C7.92281 7.97625 9.15469 7.84688 10.2994 9.41625L16.3238 17.4797C16.5066 17.6737 16.8019 17.7019 17.0184 17.55L17.1028 17.4909C17.325 17.3334 17.3897 17.0325 17.2547 16.7963C16.2 14.9597 12.0038 7.64156 11.3878 6.30844C10.6791 4.77 10.9828 3.98813 11.7338 3.53531C12.6253 2.99813 13.4634 3.0375 14.4647 4.52531C15.5503 6.14531 19.7662 12.9656 20.8378 14.7994C20.9784 15.0384 21.2794 15.1284 21.5269 15.0075C21.5297 15.0047 21.5353 15.0047 21.5381 15.0019C21.7744 14.8866 21.9881 14.6531 21.8897 14.3212C21.3047 12.3919 18.4331 6.38438 17.8313 5.00344C17.0072 3.11625 17.4094 2.475 18.2616 2.04188C19.1559 1.58906 20.0869 1.94625 20.7197 3.20625C21.1472 4.06125 28.6537 17.7216 28.6537 17.7216C28.5441 15.6853 29.0588 14.2425 29.4975 12.7941C30.2962 10.1588 32.2284 8.78906 33.6291 9.405C34.3575 9.72563 34.4897 10.3641 34.4109 10.8534C34.2534 11.8041 33.5841 14.7487 33.4547 17.055C33.1509 22.4606 34.785 28.6903 28.6959 32.6053C24.6206 35.2266 20.2528 34.7653 17.3672 32.7488C13.8684 30.3047 5.58281 18.5513 4.94156 17.6287Z" fill="#FFCA28"/>
<path d="M33.0975 14.5603C32.5884 16.7006 32.5209 19.3275 32.5378 20.4468C32.6053 24.809 32.5828 28.5834 28.2094 32.0315C27.6722 32.4562 25.9875 33.4912 24.0272 34.0312C23.3972 34.2028 23.6363 34.4053 24.0244 34.3603C26.1647 34.1128 27.7875 33.1903 28.6903 32.6081C34.7766 28.6931 33.2803 22.5056 33.5841 17.1C33.7134 14.7937 34.4166 11.1656 34.4053 10.8534C34.3913 10.5412 33.6066 12.42 33.0975 14.5603ZM21.8053 14.7853C21.8053 14.7853 21.3694 14.7881 20.9559 14.2115C19.7156 12.4875 15.8259 5.97654 14.7066 4.37904C13.4297 2.55654 12.24 3.25404 11.97 3.40029C11.97 3.40029 12.9488 3.43404 13.4888 4.2356C14.5913 5.86966 18.7706 13.1934 20.0897 14.7656C20.9419 15.7809 21.8053 14.7853 21.8053 14.7853ZM6.38719 15.3393C6.76969 15.75 10.1278 19.7353 11.3653 20.8462C12.4284 21.7997 13.2216 20.5847 13.2216 20.5847C13.2216 20.5847 12.8306 20.6381 12.2963 20.2359C10.9688 19.2318 7.82438 15.6515 7.11563 14.8978C6.06375 13.7784 5.085 14.4787 4.87688 14.6053C4.87969 14.6053 5.48156 14.3719 6.38719 15.3393ZM17.3222 17.2293C17.3222 17.2293 16.9622 17.4909 16.3013 16.7175C15.8203 16.1522 10.2994 9.41622 10.2994 9.41622C8.91563 7.72591 7.82719 8.22935 7.60219 8.35872C7.60219 8.35872 8.29688 8.32216 9.10969 9.25872C9.48094 9.68622 15.3731 17.1984 15.6094 17.4543C16.4728 18.3965 17.2716 17.5865 17.3222 17.2293Z" fill="#EDA600"/>
<path d="M28.6313 16.2647C28.6313 16.2647 21.3159 3.99942 20.8491 3.16411C19.8113 1.31067 18.6047 1.87879 18.3994 1.97161C18.3994 1.97161 19.0716 1.78036 19.8619 3.12473C20.2838 3.83911 25.6584 13.5029 27.3741 16.591C27.5091 17.1675 27.4978 17.9185 27.0647 18.4022C25.5122 20.1432 23.5322 21.9207 24.1144 26.3279C24.2606 27.4444 24.6741 28.5019 24.9806 29.011C25.3688 29.6494 25.8159 29.4075 25.6191 28.9294C25.4869 28.606 25.2759 27.8438 25.2338 27.5175C25.0369 25.9988 24.3731 23.3438 27.3488 20.16C27.8522 19.6285 29.1319 18.0225 28.6313 16.2647Z" fill="#EDA600"/>
<path d="M29.1066 8.70748C28.7156 7.32091 28.1081 6.04966 27.3206 4.94716C26.6119 3.95435 25.7541 3.09935 24.7753 2.4131C24.6516 2.32591 24.4941 2.05591 24.6291 1.79435C24.7641 1.53279 25.0566 1.56654 25.1663 1.61154C26.3897 2.11498 27.3909 2.98404 28.2178 4.17654C29.1994 5.59404 29.6859 6.92998 29.9363 8.42341C29.9644 8.58654 29.9588 8.92966 29.61 9.01966C29.2641 9.10966 29.1459 8.84248 29.1066 8.70748ZM27.1941 10.1953C26.8031 8.80873 26.1956 7.53748 25.4081 6.43498C24.6994 5.44216 23.8416 4.58716 22.8628 3.90091C22.7391 3.81373 22.5816 3.54373 22.7166 3.28216C22.8516 3.01779 23.1441 3.05435 23.2538 3.09935C24.4772 3.60279 25.4784 4.47185 26.3053 5.66435C27.2869 7.08185 27.7734 8.41779 28.0238 9.91123C28.0519 10.0744 28.0463 10.4175 27.6975 10.5075C27.3544 10.5975 27.2334 10.3331 27.1941 10.1953ZM2.4075 21.7856C2.89125 23.144 3.58032 24.3703 4.43813 25.4194C5.21157 26.3615 6.12281 27.1603 7.14375 27.7819C7.27313 27.8606 7.4475 28.1194 7.32938 28.3894C7.21125 28.6622 6.91875 28.6453 6.80344 28.6087C5.54906 28.1869 4.49157 27.3853 3.58875 26.249C2.51719 24.899 1.94063 23.5997 1.59188 22.1259C1.5525 21.9628 1.53563 21.6225 1.87875 21.51C2.22188 21.3975 2.35969 21.6534 2.4075 21.7856ZM4.21594 20.174C4.69969 21.5325 5.38875 22.7587 6.24656 23.8078C7.02 24.75 7.93125 25.5487 8.95219 26.1703C9.08156 26.249 9.25594 26.5078 9.13782 26.7778C9.01969 27.0506 8.72719 27.0337 8.61188 26.9972C7.3575 26.5753 6.3 25.7737 5.39719 24.6375C4.32563 23.2875 3.74907 21.9881 3.40032 20.5144C3.36094 20.3512 3.34406 20.0109 3.68719 19.8984C4.03031 19.7831 4.16813 20.0419 4.21594 20.174Z" fill="#B0BEC5"/>
</svg>
