<svg width="30" height="30" viewBox="0 0 30 30" fill="none" xmlns="http://www.w3.org/2000/svg">
<path d="M9.375 17.5C11.1009 17.5 12.5 16.1009 12.5 14.375C12.5 12.6491 11.1009 11.25 9.375 11.25C7.64911 11.25 6.25 12.6491 6.25 14.375C6.25 16.1009 7.64911 17.5 9.375 17.5Z" fill="#04C300"/>
<path d="M21.5063 8.75H15C14.6685 8.75 14.3505 8.8817 14.1161 9.11612C13.8817 9.35054 13.75 9.66848 13.75 10V18.75H5V7.5H2.5V25H5V21.25H25V25H27.5V14.7438C27.4983 13.1546 26.8663 11.631 25.7426 10.5074C24.619 9.38367 23.0954 8.75165 21.5063 8.75ZM16.25 18.75V11.25H21.5063C22.4325 11.251 23.3206 11.6194 23.9756 12.2744C24.6306 12.9294 24.999 13.8175 25 14.7438V18.75H16.25Z" fill="#04C300"/>
</svg>
