<svg width="30" height="30" viewBox="0 0 30 30" fill="none" xmlns="http://www.w3.org/2000/svg">
<path d="M3.36856 2.79724L24.9563 24.3849C25.3659 24.7946 25.596 25.3502 25.596 25.9295C25.596 26.5088 25.3659 27.0644 24.9563 27.474C24.5465 27.8835 23.991 28.1135 23.4117 28.1135C22.8325 28.1135 22.2769 27.8835 21.8672 27.474L16.5938 22.1097C16.2486 21.7593 16.0551 21.2873 16.0547 20.7955V20.4715C16.0547 20.2231 16.0055 19.9772 15.9097 19.7481C15.8139 19.519 15.6736 19.3112 15.4969 19.1367L14.816 18.508C14.5849 18.2947 14.3038 18.143 13.9987 18.0668C13.6936 17.9906 13.3742 17.9924 13.0699 18.072C12.5901 18.1973 12.086 18.1948 11.6074 18.065C11.1288 17.9352 10.6925 17.6825 10.3418 17.332L5.33613 12.3258C2.3666 9.35622 1.27383 4.87205 3.36856 2.79724Z" stroke="#04C300" stroke-width="2" stroke-linejoin="round"/>
<path d="M23.7049 1.875L19.1785 6.40137C18.8302 6.7496 18.5539 7.16303 18.3654 7.61806C18.1769 8.07309 18.0799 8.56079 18.0799 9.05332V9.92402C18.0799 10.0472 18.0556 10.1692 18.0085 10.283C17.9613 10.3968 17.8922 10.5002 17.8051 10.5873L17.1424 11.25M19.0174 13.125L19.6801 12.4623C19.7671 12.3752 19.8705 12.306 19.9843 12.2589C20.0982 12.2117 20.2201 12.1875 20.3433 12.1875H21.214C21.7066 12.1875 22.1943 12.0905 22.6493 11.902C23.1043 11.7135 23.5178 11.4372 23.866 11.0889L28.3924 6.5625M26.0486 4.21875L21.3611 8.90625M11.9861 21.5625L6.14314 27.4383C5.70362 27.8777 5.10759 28.1245 4.48611 28.1245C3.86463 28.1245 3.2686 27.8777 2.82908 27.4383C2.38969 26.9988 2.14286 26.4027 2.14286 25.7812C2.14286 25.1598 2.38969 24.5637 2.82908 24.1242L7.76736 19.2187" stroke="#04C300" stroke-width="2" stroke-linecap="round" stroke-linejoin="round"/>
</svg>
