<svg width="36" height="36" viewBox="0 0 36 36" fill="none" xmlns="http://www.w3.org/2000/svg">
<path d="M4.94156 17.6287C4.15688 16.5009 3.84188 15.4378 4.60969 14.7937C5.25938 14.2481 6.21563 14.1441 7.39688 15.5081C7.39688 15.5081 10.9266 19.6087 12.1416 20.7478C12.4172 21.0037 12.7603 21.0431 13.0725 20.7197C13.3369 20.4441 13.2413 20.205 13.0163 19.8759C13.0163 19.8759 8.04094 12.4791 7.38844 11.5763C6.3 10.0659 6.71906 9.09 7.2225 8.62594C7.92281 7.97625 9.15469 7.84688 10.2994 9.41625L16.3238 17.4797C16.5066 17.6737 16.8019 17.7019 17.0184 17.55L17.1028 17.4909C17.325 17.3334 17.3897 17.0325 17.2547 16.7963C16.2 14.9597 12.0038 7.64156 11.3878 6.30844C10.6791 4.77 10.9828 3.98813 11.7338 3.53531C12.6253 2.99813 13.4634 3.0375 14.4647 4.52531C15.5503 6.14531 19.7662 12.9656 20.8378 14.7994C20.9784 15.0384 21.2794 15.1284 21.5269 15.0075C21.5297 15.0047 21.5353 15.0047 21.5381 15.0019C21.7744 14.8866 21.9881 14.6531 21.8897 14.3212C21.3047 12.3919 18.4331 6.38438 17.8313 5.00344C17.0072 3.11625 17.4094 2.475 18.2616 2.04188C19.1559 1.58906 20.0869 1.94625 20.7197 3.20625C21.1472 4.06125 28.6537 17.7216 28.6537 17.7216C28.5441 15.6853 29.0588 14.2425 29.4975 12.7941C30.2962 10.1588 32.2284 8.78906 33.6291 9.405C34.3575 9.72563 34.4897 10.3641 34.4109 10.8534C34.2534 11.8041 33.5841 14.7487 33.4547 17.055C33.1509 22.4606 34.785 28.6903 28.6959 32.6053C24.6206 35.2266 20.2528 34.7653 17.3672 32.7488C13.8684 30.3047 5.58281 18.5513 4.94156 17.6287Z" fill="#FFCA28"/>
<path d="M33.0975 14.5603C32.5885 16.7006 32.521 19.3275 32.5378 20.4469C32.6053 24.8091 32.5828 28.5834 28.2094 32.0316C27.6722 32.4563 25.9875 33.4913 24.0272 34.0313C23.3972 34.2028 23.6363 34.4053 24.0244 34.3603C26.1647 34.1128 27.7875 33.1903 28.6903 32.6081C34.7766 28.6931 33.2803 22.5056 33.5841 17.1C33.7135 14.7938 34.4166 11.1656 34.4053 10.8534C34.3913 10.5413 33.6066 12.42 33.0975 14.5603ZM21.8053 14.7853C21.8053 14.7853 21.3694 14.7881 20.956 14.2116C19.7156 12.4875 15.826 5.97657 14.7066 4.37907C13.4297 2.55657 12.24 3.25407 11.97 3.40032C11.97 3.40032 12.9488 3.43407 13.4888 4.23563C14.5913 5.86969 18.7706 13.1934 20.0897 14.7656C20.9419 15.7809 21.8053 14.7853 21.8053 14.7853ZM6.3872 15.3394C6.7697 15.75 10.1278 19.7353 11.3653 20.8463C12.4285 21.7997 13.2216 20.5847 13.2216 20.5847C13.2216 20.5847 12.8306 20.6381 12.2963 20.2359C10.9688 19.2319 7.82439 15.6516 7.11564 14.8978C6.06377 13.7784 5.08502 14.4788 4.87689 14.6053C4.8797 14.6053 5.48158 14.3719 6.3872 15.3394ZM17.3222 17.2294C17.3222 17.2294 16.9622 17.4909 16.3013 16.7175C15.8203 16.1522 10.2994 9.41625 10.2994 9.41625C8.91564 7.72594 7.8272 8.22938 7.60221 8.35875C7.60221 8.35875 8.29689 8.32219 9.1097 9.25875C9.48095 9.68625 15.3731 17.1984 15.6094 17.4544C16.4728 18.3966 17.2716 17.5866 17.3222 17.2294Z" fill="#EDA600"/>
<path d="M28.6312 16.2647C28.6312 16.2647 21.3159 3.99939 20.849 3.16408C19.8112 1.31064 18.6047 1.87876 18.3994 1.97158C18.3994 1.97158 19.0715 1.78033 19.8619 3.1247C20.2837 3.83908 25.6584 13.5028 27.374 16.591C27.509 17.1675 27.4978 17.9185 27.0647 18.4022C25.5122 20.1431 23.5322 21.9206 24.1144 26.3278C24.2606 27.4444 24.674 28.5019 24.9806 29.011C25.3687 29.6494 25.8159 29.4075 25.619 28.9294C25.4869 28.606 25.2759 27.8438 25.2337 27.5175C25.0369 25.9988 24.3731 23.3438 27.3487 20.16C27.8522 19.6285 29.1319 18.0225 28.6312 16.2647Z" fill="#EDA600"/>
<path d="M29.1065 8.70751C28.7156 7.32094 28.1081 6.0497 27.3206 4.94719C26.6118 3.95438 25.754 3.09938 24.7753 2.41313C24.6515 2.32594 24.494 2.05594 24.629 1.79438C24.764 1.53282 25.0565 1.56657 25.1662 1.61157C26.3897 2.11501 27.3909 2.98407 28.2178 4.17657C29.1993 5.59407 29.6859 6.93001 29.9362 8.42344C29.9643 8.58657 29.9587 8.92969 29.61 9.01969C29.264 9.10969 29.1459 8.84251 29.1065 8.70751ZM27.194 10.1953C26.8031 8.80876 26.1956 7.53751 25.4081 6.43501C24.6993 5.44219 23.8415 4.58719 22.8628 3.90094C22.739 3.81376 22.5815 3.54376 22.7165 3.28219C22.8515 3.01782 23.144 3.05438 23.2537 3.09938C24.4772 3.60282 25.4784 4.47188 26.3053 5.66438C27.2868 7.08188 27.7734 8.41782 28.0237 9.91126C28.0518 10.0744 28.0462 10.4175 27.6975 10.5075C27.3543 10.5975 27.2334 10.3331 27.194 10.1953ZM2.40747 21.7856C2.89122 23.1441 3.58028 24.3703 4.4381 25.4194C5.21153 26.3616 6.12278 27.1603 7.14372 27.7819C7.2731 27.8606 7.44747 28.1194 7.32935 28.3894C7.21122 28.6622 6.91872 28.6453 6.80341 28.6088C5.54903 28.1869 4.49153 27.3853 3.58872 26.2491C2.51716 24.8991 1.9406 23.5997 1.59185 22.1259C1.55247 21.9628 1.5356 21.6225 1.87872 21.51C2.22185 21.3975 2.35966 21.6534 2.40747 21.7856ZM4.21591 20.1741C4.69966 21.5325 5.38872 22.7588 6.24653 23.8078C7.01997 24.75 7.93122 25.5488 8.95216 26.1703C9.08153 26.2491 9.25591 26.5078 9.13778 26.7778C9.01966 27.0506 8.72716 27.0338 8.61185 26.9972C7.35747 26.5753 6.29997 25.7738 5.39716 24.6375C4.3256 23.2875 3.74903 21.9881 3.40028 20.5144C3.36091 20.3513 3.34403 20.0109 3.68716 19.8984C4.03028 19.7831 4.1681 20.0419 4.21591 20.1741Z" fill="#B0BEC5"/>
</svg>
