<svg width="24" height="24" viewBox="0 0 24 24" fill="none" xmlns="http://www.w3.org/2000/svg">
<path d="M11.9491 22.4555L12.1637 21.7368L11.9491 22.4555ZM12.8918 22.4555L13.1064 23.1741L12.8918 22.4555ZM5.18772 5.21451L5.49233 5.89987L5.18772 5.21451ZM19.6532 5.21451L19.9578 4.52916L19.6532 5.21451ZM11.6082 2.36098L11.3036 1.67562L11.6082 2.36098ZM13.2327 2.36098L12.9281 3.04633L13.2327 2.36098ZM11.3036 1.67562L4.88312 4.52916L5.49233 5.89987L11.9128 3.04633L11.3036 1.67562ZM3.25 7.04214V11.356H4.75V7.04214H3.25ZM3.25 11.356C3.25 16.6855 6.80574 21.7023 11.7345 23.1741L12.1637 21.7368C7.91571 20.4683 4.75 16.0709 4.75 11.356H3.25ZM13.1064 23.1741C18.0352 21.7023 21.5909 16.6855 21.5909 11.356H20.0909C20.0909 16.0709 16.9252 20.4683 12.6772 21.7368L13.1064 23.1741ZM21.5909 11.356V7.04214H20.0909V11.356H21.5909ZM19.9578 4.52916L13.5373 1.67562L12.9281 3.04633L19.3486 5.89987L19.9578 4.52916ZM11.7345 23.1741C12.182 23.3077 12.659 23.3077 13.1064 23.1741L12.6772 21.7368C12.5098 21.7868 12.3311 21.7868 12.1637 21.7368L11.7345 23.1741ZM4.88312 4.52916C3.89002 4.97053 3.25 5.95537 3.25 7.04214H4.75C4.75 6.54815 5.04092 6.1005 5.49233 5.89987L4.88312 4.52916ZM21.5909 7.04214C21.5909 5.95537 20.9509 4.97053 19.9578 4.52916L19.3486 5.89987C19.8 6.1005 20.0909 6.54815 20.0909 7.04214H21.5909ZM11.9128 3.04633C12.236 2.90269 12.6049 2.90269 12.9281 3.04633L13.5373 1.67562C12.8263 1.35959 12.0146 1.35959 11.3036 1.67562L11.9128 3.04633Z" fill="#071222"/>
<path d="M7 19L10.4048 14.9729M14.5952 14.9729L18 19M15.6429 12.2579C15.6429 14.0572 14.2358 15.5158 12.5 15.5158C10.7642 15.5158 9.35714 14.0572 9.35714 12.2579C9.35714 10.4586 10.7642 9 12.5 9C14.2358 9 15.6429 10.4586 15.6429 12.2579Z" stroke="#071222" stroke-width="1.5" stroke-linecap="round" stroke-linejoin="round"/>
</svg>
